HIERARCHY
ROOT Hips
{
	OFFSET 0.000000 0.000000 0.000000
	CHANNELS 6 Xposition Yposition Zposition Zrotation Yrotation Xrotation 
	JOINT LHipJoint
	{
		OFFSET 0.000000 0.000000 0.000000
		CHANNELS 3 Zrotation Yrotation Xrotation
		JOINT LeftUpLeg
		{
			OFFSET 1.363060 -1.794630 0.839290
			CHANNELS 3 Zrotation Yrotation Xrotation
			JOINT LeftLeg
			{
				OFFSET 2.448110 -6.726130 0.000000
				CHANNELS 3 Zrotation Yrotation Xrotation
				JOINT LeftFoot
				{
					OFFSET 2.562200 -7.039590 0.000000
					CHANNELS 3 Zrotation Yrotation Xrotation
					JOINT LeftToeBase
					{
						OFFSET 0.157640 -0.433110 2.322550
						CHANNELS 3 Zrotation Yrotation Xrotation
						End Site
						{
							OFFSET 0.000000 0.000000 0.000000
						}
					}
				}
			}
		}
	}
	JOINT RHipJoint
	{
		OFFSET 0.000000 0.000000 0.000000
		CHANNELS 3 Zrotation Yrotation Xrotation
		JOINT RightUpLeg
		{
			OFFSET -1.305520 -1.794630 0.839290
			CHANNELS 3 Zrotation Yrotation Xrotation
			JOINT RightLeg
			{
				OFFSET -2.542530 -6.985550 0.000000
				CHANNELS 3 Zrotation Yrotation Xrotation
				JOINT RightFoot
				{
					OFFSET -2.568260 -7.056230 0.000000
					CHANNELS 3 Zrotation Yrotation Xrotation
					JOINT RightToeBase
					{
						OFFSET -0.164730 -0.452590 2.363150
						CHANNELS 3 Zrotation Yrotation Xrotation
						End Site
						{
							OFFSET 0.000000 0.000000 0.000000
						}
					}
				}
			}
		}
	}
}
MOTION
Frames: 14
Frame Time: 0.008333
3.332397 16.693225 -0.510397 10.992152 64.788225 14.943389 -9.306985 0.759280 2.048829 -12.487292 -0.634341 -31.265183 -2.049071 0.893299 27.142642 0.611851 3.300604 -2.300861 0.417300 0.000001 -22.724300 11.919167 -3.600150 -1.232256 -3.759503 -8.832159 -1.295857 0.171345 -3.544527 44.161339 0.777572 18.068079 10.520381 5.114100 0.000001 -84.274600
3.461550 16.641317 -0.488693 11.896088 64.204222 15.694468 -9.207615 0.819714 1.836011 -13.380724 -0.093534 -31.771501 -2.050428 1.029336 29.271105 0.669412 3.492120 -3.427437 0.338900 -0.000000 -22.605200 12.192422 -3.516766 -1.230042 -4.944650 -9.117129 -2.894917 -0.093804 -3.710585 47.247622 0.640670 18.557797 12.206267 5.846199 0.000000 -83.610600
3.584009 16.588351 -0.467483 12.755241 63.624618 16.403472 -9.096867 0.874620 1.610502 -14.255134 0.397073 -32.209187 -2.057066 1.159959 31.316599 0.727803 3.654262 -4.673557 0.239400 -0.000000 -22.529000 12.456118 -3.403129 -1.237428 -6.028728 -9.278008 -4.521701 -0.354613 -3.881663 50.383431 0.492108 18.736651 13.799381 6.483200 -0.000000 -81.879500
3.700210 16.535347 -0.447266 13.546182 63.045424 17.041422 -8.979122 0.925170 1.375014 -15.092095 0.836241 -32.544157 -2.068513 1.282347 33.228763 0.788397 3.800147 -6.000617 0.122600 0.000000 -22.491500 12.707268 -3.262205 -1.258062 -7.002146 -9.326182 -6.157097 -0.611269 -4.060130 53.542700 0.337526 18.519112 15.202306 6.930600 0.000000 -79.288000
3.810893 16.483482 -0.428445 14.251009 62.463859 17.586627 -8.858989 0.972485 1.132805 -15.877316 1.227647 -32.752323 -2.084042 1.393990 34.966476 0.852803 3.946646 -7.366219 -0.007600 -0.000000 -22.479800 12.943550 -3.098132 -1.293666 -7.859161 -9.278201 -7.787804 -0.866331 -4.247193 56.699006 0.180135 17.831189 16.327687 7.102300 0.000000 -76.110300
3.916998 16.433995 -0.411160 14.866024 61.878427 18.034491 -8.739182 1.017687 0.888255 -16.605542 1.573105 -32.820763 -2.102904 1.492652 36.497470 0.922901 4.114420 -8.726998 -0.147600 -0.000000 -22.474000 13.164666 -2.914613 -1.344113 -8.602812 -9.155583 -9.409088 -1.123338 -4.442725 59.826295 0.020229 16.626772 17.103567 6.940300 -0.000000 -72.588299
4.019625 16.388189 -0.395628 15.381111 61.290230 18.375187 -8.623849 1.061134 0.644873 -17.268859 1.882164 -32.747183 -2.123738 1.577028 37.803859 0.999564 4.318257 -10.043356 -0.295299 0.000000 -22.451000 13.368500 -2.715752 -1.407403 -9.228284 -8.975613 -11.014897 -1.384926 -4.644394 62.891600 -0.144758 14.890414 17.480168 6.426600 -0.000000 -69.001400
4.119935 16.347373 -0.381967 15.784102 60.702422 18.599905 -8.517977 1.102543 0.405838 -17.857936 2.168453 -32.540084 -2.144928 1.646595 38.880898 1.082382 4.565154 -11.281606 -0.448800 0.000000 -22.389700 13.551697 -2.505867 -1.479867 -9.726255 -8.752140 -12.600430 -1.651403 -4.847894 65.856695 -0.319279 12.647365 17.430414 5.589600 0.000000 -65.595700
4.218964 16.312694 -0.369902 16.086362 60.121074 18.724412 -8.422431 1.142095 0.175268 -18.376923 2.435334 -32.210734 -2.165459 1.700773 39.726457 1.170886 4.862071 -12.412229 -0.606000 0.000000 -22.274700 13.714197 -2.288173 -1.558191 -10.101886 -8.504426 -14.165945 -1.920393 -5.049621 68.686356 -0.506721 9.974837 16.930103 4.500300 0.000000 -62.318101
4.317713 16.285208 -0.359121 16.292638 59.553865 18.758701 -8.339438 1.179603 -0.043840 -18.825635 2.691420 -31.775258 -2.184493 1.739729 40.348148 1.262901 5.203304 -13.415098 -0.764300 -0.000000 -22.100100 13.854145 -2.066647 -1.638563 -10.354358 -8.247069 -15.708478 -2.186733 -5.245077 71.339648 -0.709280 6.988061 15.978607 3.263600 0.000000 -59.096500
4.416956 16.265711 -0.349263 16.409644 59.009938 18.715614 -8.270803 1.214924 -0.248937 -19.204623 2.944154 -31.252383 -2.201850 1.764062 40.758729 1.355145 5.573825 -14.279251 -0.919800 -0.000001 -21.871900 13.969640 -1.845414 -1.717345 -10.483436 -7.992782 -17.225695 -2.443011 -5.429744 73.775127 -0.926034 3.836653 14.596708 2.003500 -0.000001 -55.801300
4.517259 16.254819 -0.339776 16.450161 58.499035 18.613139 -8.217005 1.248352 -0.437874 -19.517091 3.197899 -30.657439 -2.218232 1.774377 40.970129 1.443854 5.953177 -15.001425 -1.067699 0.000000 -21.603700 14.059661 -1.628749 -1.791425 -10.493168 -7.752681 -18.713194 -2.680364 -5.599595 75.952896 -1.151834 0.690947 12.829055 0.843700 0.000000 -52.265500
4.619010 16.252824 -0.330074 16.425363 58.030381 18.467354 -8.178160 1.280349 -0.609267 -19.766150 3.455664 -30.003813 -2.235006 1.771522 40.995229 1.524965 6.316116 -15.586734 -1.202600 0.000000 -21.314499 14.123186 -1.420688 -1.858272 -10.388689 -7.534547 -20.165870 -2.889333 -5.750785 77.837203 -1.377170 -2.277861 10.745954 -0.112700 -0.000000 -48.368500
4.722423 16.259848 -0.319616 16.345730 57.612886 18.291778 -8.154288 1.311514 -0.761758 -19.953331 3.718891 -29.300286 -2.253951 1.756155 40.844337 1.594510 6.636070 -16.045524 -1.319300 0.000000 -21.024500 14.159191 -1.225423 -1.915390 -10.174775 -7.342336 -21.576216 -3.060613 -5.879613 79.397781 -1.589173 -4.917230 8.442042 -0.800200 0.000001 -44.074800
